<svg width="1280" height="860" viewBox="0 0 1280 860" fill="none" xmlns="http://www.w3.org/2000/svg">
  <defs>
    <linearGradient id="bg" x1="90" y1="60" x2="1180" y2="780" gradientUnits="userSpaceOnUse">
      <stop stop-color="#F8FAFC"/>
      <stop offset="0.48" stop-color="#EEF5F4"/>
      <stop offset="1" stop-color="#E2E8F0"/>
    </linearGradient>
    <linearGradient id="primary" x1="0" y1="0" x2="1" y2="1">
      <stop stop-color="#14B8A6"/>
      <stop offset="1" stop-color="#0F766E"/>
    </linearGradient>
    <filter id="shadow" x="-60" y="-60" width="1400" height="980" filterUnits="userSpaceOnUse" color-interpolation-filters="sRGB">
      <feDropShadow dx="0" dy="24" stdDeviation="28" flood-color="#0F172A" flood-opacity="0.10"/>
    </filter>
  </defs>

  <rect width="1280" height="860" rx="36" fill="url(#bg)"/>
  <g filter="url(#shadow)">
    <rect x="52" y="52" width="1176" height="756" rx="28" fill="white"/>
  </g>

  <rect x="52" y="52" width="260" height="756" rx="28" fill="#0F172A"/>
  <rect x="336" y="52" width="892" height="70" rx="28" fill="white"/>

  <rect x="84" y="86" width="164" height="32" rx="16" fill="url(#primary)"/>
  <text x="108" y="107" fill="#FFFFFF" font-size="16" font-weight="700" font-family="Arial, PingFang SC, Microsoft YaHei, sans-serif">
    Admin Console
  </text>
  <rect x="84" y="160" width="196" height="44" rx="16" fill="#FFFFFF" fill-opacity="0.12"/>
  <rect x="84" y="220" width="196" height="44" rx="16" fill="#FFFFFF" fill-opacity="0.06"/>
  <rect x="84" y="280" width="196" height="44" rx="16" fill="#FFFFFF" fill-opacity="0.06"/>
  <rect x="84" y="340" width="196" height="44" rx="16" fill="#FFFFFF" fill-opacity="0.06"/>
  <rect x="84" y="400" width="196" height="44" rx="16" fill="#FFFFFF" fill-opacity="0.06"/>
  <rect x="84" y="460" width="196" height="44" rx="16" fill="#FFFFFF" fill-opacity="0.06"/>
  <rect x="112" y="176" width="96" height="12" rx="6" fill="#FFFFFF"/>
  <rect x="112" y="236" width="88" height="12" rx="6" fill="#CBD5E1"/>
  <rect x="112" y="296" width="92" height="12" rx="6" fill="#CBD5E1"/>
  <rect x="112" y="356" width="84" height="12" rx="6" fill="#CBD5E1"/>
  <rect x="112" y="416" width="88" height="12" rx="6" fill="#CBD5E1"/>
  <rect x="112" y="476" width="74" height="12" rx="6" fill="#CBD5E1"/>

  <circle cx="376" cy="87" r="6" fill="#F97316"/>
  <circle cx="398" cy="87" r="6" fill="#FACC15"/>
  <circle cx="420" cy="87" r="6" fill="#22C55E"/>
  <text x="456" y="94" fill="#0F172A" font-size="18" font-weight="700" font-family="Arial, PingFang SC, Microsoft YaHei, sans-serif">
    管理后台预览
  </text>

  <text x="368" y="176" fill="#0F172A" font-size="34" font-weight="800" font-family="Arial, PingFang SC, Microsoft YaHei, sans-serif">
    数据治理与运营支撑
  </text>
  <text x="368" y="212" fill="#64748B" font-size="18" font-weight="500" font-family="Arial, PingFang SC, Microsoft YaHei, sans-serif">
    统一查看平台统计、邮件健康状态、素材管理与敏感操作日志。
  </text>

  <rect x="368" y="250" width="192" height="138" rx="22" fill="#F8FAFC"/>
  <rect x="580" y="250" width="192" height="138" rx="22" fill="#F8FAFC"/>
  <rect x="792" y="250" width="192" height="138" rx="22" fill="#F8FAFC"/>
  <rect x="1004" y="250" width="192" height="138" rx="22" fill="#F8FAFC"/>

  <rect x="392" y="274" width="42" height="42" rx="14" fill="#D1FAE5"/>
  <rect x="604" y="274" width="42" height="42" rx="14" fill="#CCFBF1"/>
  <rect x="816" y="274" width="42" height="42" rx="14" fill="#A7F3D0"/>
  <rect x="1028" y="274" width="42" height="42" rx="14" fill="#DCFCE7"/>

  <rect x="392" y="336" width="92" height="14" rx="7" fill="#64748B"/>
  <rect x="604" y="336" width="92" height="14" rx="7" fill="#64748B"/>
  <rect x="816" y="336" width="92" height="14" rx="7" fill="#64748B"/>
  <rect x="1028" y="336" width="92" height="14" rx="7" fill="#64748B"/>

  <rect x="392" y="360" width="74" height="12" rx="6" fill="#0F172A"/>
  <rect x="604" y="360" width="80" height="12" rx="6" fill="#0F172A"/>
  <rect x="816" y="360" width="86" height="12" rx="6" fill="#0F172A"/>
  <rect x="1028" y="360" width="82" height="12" rx="6" fill="#0F172A"/>

  <rect x="368" y="422" width="404" height="344" rx="24" fill="#F8FAFC"/>
  <rect x="792" y="422" width="404" height="344" rx="24" fill="#F8FAFC"/>

  <text x="396" y="464" fill="#0F172A" font-size="24" font-weight="800" font-family="Arial, PingFang SC, Microsoft YaHei, sans-serif">
    邮件健康与发送测试
  </text>
  <rect x="396" y="492" width="348" height="74" rx="18" fill="#FFFFFF"/>
  <rect x="420" y="516" width="120" height="14" rx="7" fill="#0F172A"/>
  <rect x="420" y="542" width="190" height="12" rx="6" fill="#CBD5E1"/>
  <rect x="396" y="584" width="348" height="156" rx="18" fill="#FFFFFF"/>
  <rect x="420" y="608" width="112" height="14" rx="7" fill="#0F172A"/>
  <rect x="420" y="640" width="220" height="12" rx="6" fill="#CBD5E1"/>
  <rect x="420" y="664" width="202" height="12" rx="6" fill="#E2E8F0"/>
  <rect x="420" y="688" width="168" height="12" rx="6" fill="#CBD5E1"/>
  <rect x="612" y="710" width="108" height="34" rx="17" fill="url(#primary)"/>
  <text x="642" y="732" fill="#FFFFFF" font-size="14" font-weight="700" font-family="Arial, PingFang SC, Microsoft YaHei, sans-serif">
    发送测试
  </text>

  <text x="820" y="464" fill="#0F172A" font-size="24" font-weight="800" font-family="Arial, PingFang SC, Microsoft YaHei, sans-serif">
    日志与审核列表
  </text>
  <rect x="820" y="492" width="348" height="54" rx="16" fill="#FFFFFF"/>
  <rect x="842" y="510" width="88" height="14" rx="7" fill="#0F172A"/>
  <rect x="820" y="566" width="348" height="66" rx="16" fill="#FFFFFF"/>
  <rect x="842" y="588" width="126" height="12" rx="6" fill="#0F172A"/>
  <rect x="1008" y="586" width="62" height="16" rx="8" fill="#DCFCE7"/>
  <rect x="820" y="646" width="348" height="66" rx="16" fill="#FFFFFF"/>
  <rect x="842" y="668" width="142" height="12" rx="6" fill="#0F172A"/>
  <rect x="1016" y="666" width="54" height="16" rx="8" fill="#FEE2E2"/>
  <rect x="820" y="726" width="348" height="16" rx="8" fill="#CBD5E1"/>
</svg>
