<svg width="1280" height="860" viewBox="0 0 1280 860" fill="none" xmlns="http://www.w3.org/2000/svg">
  <defs>
    <linearGradient id="bg" x1="80" y1="60" x2="1180" y2="780" gradientUnits="userSpaceOnUse">
      <stop stop-color="#F8FAFC"/>
      <stop offset="0.52" stop-color="#EEF5F4"/>
      <stop offset="1" stop-color="#E2E8F0"/>
    </linearGradient>
    <linearGradient id="hero" x1="0" y1="0" x2="1" y2="1">
      <stop stop-color="#0F172A"/>
      <stop offset="1" stop-color="#1E293B"/>
    </linearGradient>
    <linearGradient id="primary" x1="0" y1="0" x2="1" y2="1">
      <stop stop-color="#14B8A6"/>
      <stop offset="1" stop-color="#0F766E"/>
    </linearGradient>
    <filter id="shadow" x="-60" y="-60" width="1400" height="980" filterUnits="userSpaceOnUse" color-interpolation-filters="sRGB">
      <feDropShadow dx="0" dy="24" stdDeviation="28" flood-color="#0F172A" flood-opacity="0.10"/>
    </filter>
  </defs>

  <rect width="1280" height="860" rx="36" fill="url(#bg)"/>
  <g filter="url(#shadow)">
    <rect x="52" y="52" width="1176" height="756" rx="28" fill="white"/>
  </g>

  <rect x="52" y="52" width="1176" height="70" rx="28" fill="white"/>
  <circle cx="92" cy="87" r="6" fill="#F97316"/>
  <circle cx="114" cy="87" r="6" fill="#FACC15"/>
  <circle cx="136" cy="87" r="6" fill="#22C55E"/>
  <rect x="170" y="73" width="164" height="28" rx="14" fill="#0F172A"/>
  <text x="188" y="92" fill="#FFFFFF" font-size="16" font-weight="700" font-family="Arial, PingFang SC, Microsoft YaHei, sans-serif">
    Asset Workspace
  </text>
  <rect x="402" y="75" width="76" height="24" rx="12" fill="#F1F5F9"/>
  <rect x="490" y="75" width="76" height="24" rx="12" fill="#F1F5F9"/>
  <rect x="578" y="75" width="96" height="24" rx="12" fill="#F1F5F9"/>
  <rect x="1088" y="71" width="104" height="32" rx="16" fill="url(#primary)"/>
  <text x="1120" y="92" fill="#FFFFFF" font-size="14" font-weight="700" font-family="Arial, PingFang SC, Microsoft YaHei, sans-serif">
    登录
  </text>

  <rect x="88" y="154" width="1104" height="230" rx="30" fill="url(#hero)"/>
  <circle cx="1060" cy="212" r="68" fill="#14B8A6" fill-opacity="0.18"/>
  <circle cx="1124" cy="286" r="92" fill="#0F766E" fill-opacity="0.14"/>
  <text x="126" y="232" fill="#E2E8F0" font-size="16" font-weight="700" font-family="Arial, PingFang SC, Microsoft YaHei, sans-serif">
    首页预览
  </text>
  <text x="126" y="286" fill="#FFFFFF" font-size="42" font-weight="800" font-family="Arial, PingFang SC, Microsoft YaHei, sans-serif">
    公开展览页与检索入口
  </text>
  <text x="126" y="326" fill="#CBD5E1" font-size="18" font-weight="500" font-family="Arial, PingFang SC, Microsoft YaHei, sans-serif">
    聚合素材流、关键词搜索、颜色搜索与以图搜图，让公开内容优先被浏览和发现。
  </text>
  <rect x="126" y="350" width="440" height="52" rx="18" fill="#FFFFFF"/>
  <rect x="146" y="368" width="160" height="16" rx="8" fill="#94A3B8"/>
  <rect x="476" y="360" width="72" height="32" rx="16" fill="url(#primary)"/>
  <text x="502" y="381" fill="#FFFFFF" font-size="14" font-weight="700" font-family="Arial, PingFang SC, Microsoft YaHei, sans-serif">
    搜索
  </text>

  <text x="88" y="454" fill="#0F172A" font-size="28" font-weight="800" font-family="Arial, PingFang SC, Microsoft YaHei, sans-serif">
    内容分发区
  </text>
  <text x="88" y="486" fill="#64748B" font-size="16" font-weight="500" font-family="Arial, PingFang SC, Microsoft YaHei, sans-serif">
    首页以卡片网格承载多种素材类型，并将标签、作者与详情入口统一到单一浏览链路。
  </text>

  <rect x="88" y="522" width="248" height="236" rx="24" fill="#F8FAFC"/>
  <rect x="352" y="522" width="248" height="236" rx="24" fill="#F8FAFC"/>
  <rect x="616" y="522" width="248" height="236" rx="24" fill="#F8FAFC"/>
  <rect x="880" y="522" width="312" height="236" rx="24" fill="#F8FAFC"/>

  <rect x="106" y="540" width="212" height="148" rx="20" fill="#D1FAE5"/>
  <rect x="370" y="540" width="212" height="148" rx="20" fill="#CCFBF1"/>
  <rect x="634" y="540" width="212" height="148" rx="20" fill="#A7F3D0"/>
  <rect x="900" y="540" width="272" height="52" rx="18" fill="#FFFFFF"/>
  <rect x="920" y="558" width="110" height="16" rx="8" fill="#0F172A"/>
  <rect x="900" y="608" width="272" height="150" rx="18" fill="#FFFFFF"/>
  <rect x="920" y="630" width="84" height="20" rx="10" fill="#0F766E"/>
  <rect x="920" y="666" width="188" height="14" rx="7" fill="#CBD5E1"/>
  <rect x="920" y="694" width="220" height="14" rx="7" fill="#E2E8F0"/>
  <rect x="920" y="722" width="132" height="14" rx="7" fill="#CBD5E1"/>

  <rect x="122" y="706" width="94" height="10" rx="5" fill="#0F172A"/>
  <rect x="122" y="728" width="58" height="10" rx="5" fill="#94A3B8"/>
  <rect x="386" y="706" width="112" height="10" rx="5" fill="#0F172A"/>
  <rect x="386" y="728" width="66" height="10" rx="5" fill="#94A3B8"/>
  <rect x="650" y="706" width="102" height="10" rx="5" fill="#0F172A"/>
  <rect x="650" y="728" width="62" height="10" rx="5" fill="#94A3B8"/>
</svg>
