<svg width="1440" height="900" viewBox="0 0 1440 900" fill="none" xmlns="http://www.w3.org/2000/svg">
  <defs>
    <linearGradient id="bg" x1="120" y1="80" x2="1320" y2="820" gradientUnits="userSpaceOnUse">
      <stop stop-color="#F8FAFC"/>
      <stop offset="0.55" stop-color="#EEF5F4"/>
      <stop offset="1" stop-color="#E2E8F0"/>
    </linearGradient>
    <linearGradient id="panelGlow" x1="0" y1="0" x2="1" y2="1">
      <stop stop-color="#14B8A6" stop-opacity="0.28"/>
      <stop offset="1" stop-color="#0F766E" stop-opacity="0.06"/>
    </linearGradient>
    <linearGradient id="darkPanel" x1="0" y1="0" x2="1" y2="1">
      <stop stop-color="#0F172A"/>
      <stop offset="1" stop-color="#1E293B"/>
    </linearGradient>
    <filter id="shadow" x="-80" y="-80" width="1600" height="1000" filterUnits="userSpaceOnUse" color-interpolation-filters="sRGB">
      <feDropShadow dx="0" dy="28" stdDeviation="28" flood-color="#0F172A" flood-opacity="0.12"/>
    </filter>
    <filter id="soft" x="-40" y="-40" width="200" height="200" filterUnits="userSpaceOnUse" color-interpolation-filters="sRGB">
      <feGaussianBlur stdDeviation="28"/>
    </filter>
  </defs>

  <rect width="1440" height="900" rx="40" fill="url(#bg)"/>
  <circle cx="184" cy="164" r="96" fill="#14B8A6" fill-opacity="0.18" filter="url(#soft)"/>
  <circle cx="1260" cy="158" r="110" fill="#0F766E" fill-opacity="0.14" filter="url(#soft)"/>
  <circle cx="1180" cy="774" r="150" fill="#94A3B8" fill-opacity="0.16" filter="url(#soft)"/>

  <text x="92" y="108" fill="#0F172A" font-size="42" font-weight="800" font-family="Arial, PingFang SC, Microsoft YaHei, sans-serif">
    Asset Workspace System
  </text>
  <text x="92" y="150" fill="#475569" font-size="20" font-weight="500" font-family="Arial, PingFang SC, Microsoft YaHei, sans-serif">
    素材展览、工作区协作与后台治理统一在同一套 Web 工作台中完成
  </text>

  <g filter="url(#shadow)">
    <rect x="88" y="222" width="404" height="540" rx="28" fill="white"/>
    <rect x="518" y="182" width="404" height="580" rx="28" fill="white"/>
    <rect x="948" y="222" width="404" height="540" rx="28" fill="white"/>
  </g>

  <g>
    <rect x="88" y="222" width="404" height="66" rx="28" fill="#FFFFFF"/>
    <circle cx="126" cy="255" r="7" fill="#F97316"/>
    <circle cx="150" cy="255" r="7" fill="#FACC15"/>
    <circle cx="174" cy="255" r="7" fill="#22C55E"/>
    <rect x="206" y="241" width="240" height="28" rx="14" fill="#F1F5F9"/>
    <text x="120" y="318" fill="#0F172A" font-size="28" font-weight="800" font-family="Arial, PingFang SC, Microsoft YaHei, sans-serif">
      展览与搜索
    </text>
    <text x="120" y="348" fill="#64748B" font-size="16" font-weight="500" font-family="Arial, PingFang SC, Microsoft YaHei, sans-serif">
      公开素材流、关键词检索、颜色搜索、以图搜图
    </text>

    <rect x="120" y="384" width="340" height="140" rx="24" fill="url(#darkPanel)"/>
    <rect x="148" y="412" width="92" height="22" rx="11" fill="#0F766E"/>
    <rect x="148" y="454" width="286" height="16" rx="8" fill="#E2E8F0"/>
    <rect x="148" y="482" width="214" height="16" rx="8" fill="#CBD5E1"/>
    <rect x="308" y="410" width="126" height="88" rx="20" fill="url(#panelGlow)"/>
    <rect x="136" y="548" width="150" height="160" rx="22" fill="#F8FAFC"/>
    <rect x="294" y="548" width="150" height="160" rx="22" fill="#F8FAFC"/>
    <rect x="152" y="566" width="118" height="78" rx="18" fill="#D1FAE5"/>
    <rect x="310" y="566" width="118" height="78" rx="18" fill="#CCFBF1"/>
    <rect x="152" y="658" width="86" height="12" rx="6" fill="#0F172A"/>
    <rect x="310" y="658" width="92" height="12" rx="6" fill="#0F172A"/>
    <rect x="152" y="682" width="58" height="10" rx="5" fill="#94A3B8"/>
    <rect x="310" y="682" width="64" height="10" rx="5" fill="#94A3B8"/>
  </g>

  <g>
    <rect x="518" y="182" width="404" height="66" rx="28" fill="#FFFFFF"/>
    <circle cx="556" cy="215" r="7" fill="#F97316"/>
    <circle cx="580" cy="215" r="7" fill="#FACC15"/>
    <circle cx="604" cy="215" r="7" fill="#22C55E"/>
    <rect x="636" y="201" width="240" height="28" rx="14" fill="#F1F5F9"/>
    <text x="550" y="278" fill="#0F172A" font-size="30" font-weight="800" font-family="Arial, PingFang SC, Microsoft YaHei, sans-serif">
      工作区协作
    </text>
    <text x="550" y="312" fill="#64748B" font-size="16" font-weight="500" font-family="Arial, PingFang SC, Microsoft YaHei, sans-serif">
      成员邀请、权限分层、编辑锁、通知联动
    </text>

    <rect x="550" y="350" width="340" height="154" rx="26" fill="url(#panelGlow)"/>
    <rect x="578" y="380" width="156" height="18" rx="9" fill="#0F172A"/>
    <rect x="578" y="412" width="272" height="14" rx="7" fill="#64748B"/>
    <rect x="578" y="442" width="244" height="14" rx="7" fill="#94A3B8"/>
    <rect x="578" y="470" width="112" height="26" rx="13" fill="#0F766E"/>
    <rect x="738" y="380" width="124" height="96" rx="22" fill="#FFFFFF"/>
    <circle cx="772" cy="414" r="14" fill="#CCFBF1"/>
    <circle cx="808" cy="414" r="14" fill="#D1FAE5"/>
    <circle cx="844" cy="414" r="14" fill="#A7F3D0"/>
    <rect x="756" y="446" width="84" height="10" rx="5" fill="#CBD5E1"/>

    <rect x="550" y="534" width="162" height="168" rx="24" fill="#FFFFFF"/>
    <rect x="728" y="534" width="162" height="168" rx="24" fill="#FFFFFF"/>
    <rect x="568" y="554" width="126" height="16" rx="8" fill="#0F172A"/>
    <rect x="746" y="554" width="126" height="16" rx="8" fill="#0F172A"/>
    <rect x="568" y="588" width="92" height="86" rx="18" fill="#F8FAFC"/>
    <rect x="746" y="588" width="92" height="86" rx="18" fill="#F8FAFC"/>
    <rect x="668" y="588" width="26" height="12" rx="6" fill="#0F766E"/>
    <rect x="846" y="588" width="26" height="12" rx="6" fill="#0F766E"/>
    <rect x="568" y="684" width="82" height="10" rx="5" fill="#94A3B8"/>
    <rect x="746" y="684" width="82" height="10" rx="5" fill="#94A3B8"/>
  </g>

  <g>
    <rect x="948" y="222" width="404" height="66" rx="28" fill="#FFFFFF"/>
    <circle cx="986" cy="255" r="7" fill="#F97316"/>
    <circle cx="1010" cy="255" r="7" fill="#FACC15"/>
    <circle cx="1034" cy="255" r="7" fill="#22C55E"/>
    <rect x="1066" y="241" width="240" height="28" rx="14" fill="#F1F5F9"/>
    <text x="980" y="318" fill="#0F172A" font-size="28" font-weight="800" font-family="Arial, PingFang SC, Microsoft YaHei, sans-serif">
      管理后台
    </text>
    <text x="980" y="348" fill="#64748B" font-size="16" font-weight="500" font-family="Arial, PingFang SC, Microsoft YaHei, sans-serif">
      用户治理、素材审查、统计分析、日志审计
    </text>

    <rect x="980" y="382" width="340" height="122" rx="24" fill="#0F172A"/>
    <rect x="1010" y="410" width="122" height="68" rx="18" fill="#0F766E"/>
    <rect x="1152" y="410" width="138" height="14" rx="7" fill="#E2E8F0"/>
    <rect x="1152" y="438" width="114" height="14" rx="7" fill="#CBD5E1"/>
    <rect x="1152" y="466" width="92" height="14" rx="7" fill="#94A3B8"/>
    <rect x="980" y="534" width="340" height="174" rx="24" fill="#F8FAFC"/>
    <rect x="1008" y="560" width="86" height="108" rx="18" fill="#FFFFFF"/>
    <rect x="1106" y="560" width="86" height="108" rx="18" fill="#FFFFFF"/>
    <rect x="1204" y="560" width="86" height="108" rx="18" fill="#FFFFFF"/>
    <rect x="1026" y="578" width="50" height="54" rx="14" fill="#D1FAE5"/>
    <rect x="1124" y="578" width="50" height="54" rx="14" fill="#CCFBF1"/>
    <rect x="1222" y="578" width="50" height="54" rx="14" fill="#A7F3D0"/>
    <rect x="1018" y="646" width="66" height="10" rx="5" fill="#94A3B8"/>
    <rect x="1116" y="646" width="66" height="10" rx="5" fill="#94A3B8"/>
    <rect x="1214" y="646" width="66" height="10" rx="5" fill="#94A3B8"/>
  </g>
</svg>
