<svg width="1280" height="860" viewBox="0 0 1280 860" fill="none" xmlns="http://www.w3.org/2000/svg">
  <defs>
    <linearGradient id="bg" x1="100" y1="60" x2="1180" y2="780" gradientUnits="userSpaceOnUse">
      <stop stop-color="#F8FAFC"/>
      <stop offset="0.48" stop-color="#EEF5F4"/>
      <stop offset="1" stop-color="#E2E8F0"/>
    </linearGradient>
    <linearGradient id="primary" x1="0" y1="0" x2="1" y2="1">
      <stop stop-color="#14B8A6"/>
      <stop offset="1" stop-color="#0F766E"/>
    </linearGradient>
    <filter id="shadow" x="-60" y="-60" width="1400" height="980" filterUnits="userSpaceOnUse" color-interpolation-filters="sRGB">
      <feDropShadow dx="0" dy="24" stdDeviation="28" flood-color="#0F172A" flood-opacity="0.10"/>
    </filter>
  </defs>

  <rect width="1280" height="860" rx="36" fill="url(#bg)"/>
  <g filter="url(#shadow)">
    <rect x="52" y="52" width="1176" height="756" rx="28" fill="white"/>
  </g>

  <rect x="52" y="52" width="1176" height="70" rx="28" fill="white"/>
  <circle cx="92" cy="87" r="6" fill="#F97316"/>
  <circle cx="114" cy="87" r="6" fill="#FACC15"/>
  <circle cx="136" cy="87" r="6" fill="#22C55E"/>
  <rect x="170" y="73" width="176" height="28" rx="14" fill="#0F172A"/>
  <text x="190" y="92" fill="#FFFFFF" font-size="16" font-weight="700" font-family="Arial, PingFang SC, Microsoft YaHei, sans-serif">
    Workspace Detail
  </text>

  <rect x="88" y="154" width="1104" height="162" rx="30" fill="#0F172A"/>
  <circle cx="1088" cy="214" r="74" fill="#14B8A6" fill-opacity="0.16"/>
  <text x="126" y="214" fill="#E2E8F0" font-size="16" font-weight="700" font-family="Arial, PingFang SC, Microsoft YaHei, sans-serif">
    工作区预览
  </text>
  <text x="126" y="262" fill="#FFFFFF" font-size="38" font-weight="800" font-family="Arial, PingFang SC, Microsoft YaHei, sans-serif">
    团队空间与成员协作
  </text>
  <text x="126" y="296" fill="#CBD5E1" font-size="18" font-weight="500" font-family="Arial, PingFang SC, Microsoft YaHei, sans-serif">
    素材组织、成员管理、活动流与批量整理在同一页面联动。
  </text>

  <rect x="88" y="346" width="268" height="412" rx="26" fill="#F8FAFC"/>
  <rect x="380" y="346" width="520" height="412" rx="26" fill="#F8FAFC"/>
  <rect x="924" y="346" width="268" height="412" rx="26" fill="#F8FAFC"/>

  <text x="116" y="390" fill="#0F172A" font-size="24" font-weight="800" font-family="Arial, PingFang SC, Microsoft YaHei, sans-serif">
    成员与申请
  </text>
  <rect x="116" y="420" width="212" height="74" rx="18" fill="#FFFFFF"/>
  <circle cx="148" cy="456" r="16" fill="#CCFBF1"/>
  <rect x="176" y="442" width="88" height="12" rx="6" fill="#0F172A"/>
  <rect x="176" y="464" width="60" height="10" rx="5" fill="#94A3B8"/>
  <rect x="274" y="444" width="36" height="24" rx="12" fill="#D1FAE5"/>
  <rect x="116" y="510" width="212" height="74" rx="18" fill="#FFFFFF"/>
  <circle cx="148" cy="546" r="16" fill="#A7F3D0"/>
  <rect x="176" y="532" width="92" height="12" rx="6" fill="#0F172A"/>
  <rect x="176" y="554" width="72" height="10" rx="5" fill="#94A3B8"/>
  <rect x="116" y="600" width="212" height="126" rx="18" fill="#FFFFFF"/>
  <rect x="138" y="624" width="96" height="16" rx="8" fill="#0F172A"/>
  <rect x="138" y="656" width="142" height="12" rx="6" fill="#CBD5E1"/>
  <rect x="138" y="680" width="126" height="12" rx="6" fill="#E2E8F0"/>
  <rect x="138" y="704" width="110" height="12" rx="6" fill="#CBD5E1"/>

  <text x="408" y="390" fill="#0F172A" font-size="24" font-weight="800" font-family="Arial, PingFang SC, Microsoft YaHei, sans-serif">
    素材网格与批量操作
  </text>
  <rect x="408" y="420" width="140" height="150" rx="18" fill="#D1FAE5"/>
  <rect x="570" y="420" width="140" height="150" rx="18" fill="#CCFBF1"/>
  <rect x="732" y="420" width="140" height="150" rx="18" fill="#A7F3D0"/>
  <rect x="408" y="590" width="464" height="136" rx="18" fill="#FFFFFF"/>
  <rect x="432" y="616" width="110" height="16" rx="8" fill="#0F172A"/>
  <rect x="432" y="648" width="176" height="14" rx="7" fill="#CBD5E1"/>
  <rect x="432" y="676" width="210" height="14" rx="7" fill="#E2E8F0"/>
  <rect x="690" y="616" width="154" height="36" rx="18" fill="url(#primary)"/>
  <text x="736" y="639" fill="#FFFFFF" font-size="14" font-weight="700" font-family="Arial, PingFang SC, Microsoft YaHei, sans-serif">
    批量整理
  </text>

  <text x="952" y="390" fill="#0F172A" font-size="24" font-weight="800" font-family="Arial, PingFang SC, Microsoft YaHei, sans-serif">
    动态与记录
  </text>
  <rect x="952" y="420" width="212" height="84" rx="18" fill="#FFFFFF"/>
  <rect x="972" y="438" width="14" height="14" rx="7" fill="#0F766E"/>
  <rect x="998" y="438" width="126" height="12" rx="6" fill="#0F172A"/>
  <rect x="998" y="460" width="92" height="10" rx="5" fill="#94A3B8"/>
  <rect x="952" y="520" width="212" height="84" rx="18" fill="#FFFFFF"/>
  <rect x="972" y="538" width="14" height="14" rx="7" fill="#14B8A6"/>
  <rect x="998" y="538" width="132" height="12" rx="6" fill="#0F172A"/>
  <rect x="998" y="560" width="96" height="10" rx="5" fill="#94A3B8"/>
  <rect x="952" y="620" width="212" height="106" rx="18" fill="#FFFFFF"/>
  <rect x="972" y="642" width="128" height="14" rx="7" fill="#0F172A"/>
  <rect x="972" y="672" width="156" height="12" rx="6" fill="#CBD5E1"/>
  <rect x="972" y="696" width="116" height="12" rx="6" fill="#E2E8F0"/>
</svg>
