<svg width="128" height="128" viewBox="0 0 128 128" fill="none" xmlns="http://www.w3.org/2000/svg">
  <rect x="10" y="10" width="108" height="108" rx="28" fill="#0F172A"/>
  <rect x="20" y="20" width="88" height="88" rx="22" fill="url(#panel)"/>
  <path d="M38 42C38 37.5817 41.5817 34 46 34H82C86.4183 34 90 37.5817 90 42V50C90 54.4183 86.4183 58 82 58H46C41.5817 58 38 54.4183 38 50V42Z" fill="#F8FAFC"/>
  <path d="M38 70C38 65.5817 41.5817 62 46 62H64C68.4183 62 72 65.5817 72 70V82C72 86.4183 68.4183 90 64 90H46C41.5817 90 38 86.4183 38 82V70Z" fill="#CCFBF1"/>
  <path d="M76 70C76 65.5817 79.5817 62 84 62H82C86.4183 62 90 65.5817 90 70V82C90 86.4183 86.4183 90 82 90H84C79.5817 90 76 86.4183 76 82V70Z" fill="#99F6E4"/>
  <circle cx="96" cy="32" r="8" fill="#14B8A6"/>
  <defs>
    <linearGradient id="panel" x1="20" y1="20" x2="108" y2="108" gradientUnits="userSpaceOnUse">
      <stop stop-color="#1E293B"/>
      <stop offset="1" stop-color="#0F766E"/>
    </linearGradient>
  </defs>
</svg>
